  0
SECTION
  2
HEADER
  9
$ACADVER
  1
AC1015
  9
$HANDSEED
  5
11E
  0
ENDSEC
  0
SECTION
  2
TABLES
  0
TABLE
  2
LTYPE
  5
1
100
AcDbSymbolTable
 70
1
  0
LTYPE
  5
2
330
1
100
AcDbSymbolTableRecord
100
AcDbLinetypeTableRecord
  2
CONTINUOUS
 70
0
  3
Solid line
 72
65
 73
0
 40
0.0
  0
ENDTAB
  0
TABLE
  2
LAYER
  5
3
100
AcDbSymbolTable
 70
2
  0
LAYER
  5
4
330
3
100
AcDbSymbolTableRecord
100
AcDbLayerTableRecord
  2
0
 70
0
 62
7
  6
CONTINUOUS
  0
LAYER
  5
5
330
3
100
AcDbSymbolTableRecord
100
AcDbLayerTableRecord
  2
DIMS
 70
0
 62
3
  6
CONTINUOUS
  0
ENDTAB
  0
TABLE
  2
DIMSTYLE
  5
6
100
AcDbSymbolTable
 70
2
  0
DIMSTYLE
105
7
330
6
100
AcDbSymbolTableRecord
100
AcDbDimStyleTableRecord
  2
ORD
 70
0
  3
<>
 41
2.5
 45
0.5
 78
8
140
2.5
179
1
271
2
275
1
276
2
277
2
  0
DIMSTYLE
105
8
330
6
100
AcDbSymbolTableRecord
100
AcDbDimStyleTableRecord
  2
ARCH
 70
0
276
1
277
4
  0
ENDTAB
  0
TABLE
  2
BLOCK_RECORD
  5
9
100
AcDbSymbolTable
 70
7
  0
BLOCK_RECORD
  5
A
330
9
100
AcDbSymbolTableRecord
100
AcDbBlockTableRecord
  2
*Model_Space
  0
BLOCK_RECORD
  5
B
330
9
100
AcDbSymbolTableRecord
100
AcDbBlockTableRecord
  2
*Paper_Space
  0
BLOCK_RECORD
  5
C
330
9
100
AcDbSymbolTableRecord
100
AcDbBlockTableRecord
  2
*D1
  0
BLOCK_RECORD
  5
D
330
9
100
AcDbSymbolTableRecord
100
AcDbBlockTableRecord
  2
*D2
  0
BLOCK_RECORD
  5
E
330
9
100
AcDbSymbolTableRecord
100
AcDbBlockTableRecord
  2
*D3
  0
BLOCK_RECORD
  5
F
330
9
100
AcDbSymbolTableRecord
100
AcDbBlockTableRecord
  2
*D4
  0
BLOCK_RECORD
  5
10
330
9
100
AcDbSymbolTableRecord
100
AcDbBlockTableRecord
  2
*D5
  0
ENDTAB
  0
ENDSEC
  0
SECTION
  2
BLOCKS
  0
BLOCK
  5
100
330
A
100
AcDbEntity
  8
0
100
AcDbBlockBegin
  2
*Model_Space
 70
0
 10
0.0
 20
0.0
 30
0.0
  3
*Model_Space
  1

  0
ENDBLK
  5
101
330
A
100
AcDbEntity
  8
0
100
AcDbBlockEnd
  0
BLOCK
  5
102
330
B
100
AcDbEntity
  8
0
100
AcDbBlockBegin
  2
*Paper_Space
 70
0
 10
0.0
 20
0.0
 30
0.0
  3
*Paper_Space
  1

  0
ENDBLK
  5
103
330
B
100
AcDbEntity
  8
0
100
AcDbBlockEnd
  0
BLOCK
  5
104
330
C
100
AcDbEntity
  8
0
100
AcDbBlockBegin
  2
*D1
 70
1
 10
0.0
 20
0.0
 30
0.0
  3
*D1
  1

  0
LINE
  5
105
330
C
100
AcDbEntity
  8
0
100
AcDbLine
 10
0.0
 20
0.0
 30
0.0
 11
0.0
 21
-15.0
 31
0.0
  0
TEXT
  5
106
330
C
100
AcDbEntity
  8
0
100
AcDbText
 10
1.0
 20
-15.0
 30
0.0
 40
2.5
  1
<>
 50
0.0
100
AcDbText
  0
ENDBLK
  5
107
330
C
100
AcDbEntity
  8
0
100
AcDbBlockEnd
  0
BLOCK
  5
108
330
D
100
AcDbEntity
  8
0
100
AcDbBlockBegin
  2
*D2
 70
1
 10
0.0
 20
0.0
 30
0.0
  3
*D2
  1

  0
LINE
  5
109
330
D
100
AcDbEntity
  8
0
100
AcDbLine
 10
30.0
 20
20.0
 30
0.0
 11
30.0
 21
-15.0
 31
0.0
  0
TEXT
  5
10A
330
D
100
AcDbEntity
  8
0
100
AcDbText
 10
31.0
 20
-15.0
 30
0.0
 40
2.5
  1

 50
0.0
100
AcDbText
  0
ENDBLK
  5
10B
330
D
100
AcDbEntity
  8
0
100
AcDbBlockEnd
  0
BLOCK
  5
10C
330
E
100
AcDbEntity
  8
0
100
AcDbBlockBegin
  2
*D3
 70
1
 10
0.0
 20
0.0
 30
0.0
  3
*D3
  1

  0
LINE
  5
10D
330
E
100
AcDbEntity
  8
0
100
AcDbLine
 10
120.0
 20
0.0
 30
0.0
 11
120.0
 21
-15.0
 31
0.0
  0
TEXT
  5
10E
330
E
100
AcDbEntity
  8
0
100
AcDbText
 10
121.0
 20
-15.0
 30
0.0
 40
2.5
  1
120.00
 50
0.0
100
AcDbText
  0
ENDBLK
  5
10F
330
E
100
AcDbEntity
  8
0
100
AcDbBlockEnd
  0
BLOCK
  5
110
330
F
100
AcDbEntity
  8
0
100
AcDbBlockBegin
  2
*D4
 70
1
 10
0.0
 20
0.0
 30
0.0
  3
*D4
  1

  0
LINE
  5
111
330
F
100
AcDbEntity
  8
0
100
AcDbLine
 10
30.0
 20
20.0
 30
0.0
 11
-15.0
 21
20.0
 31
0.0
  0
TEXT
  5
112
330
F
100
AcDbEntity
  8
0
100
AcDbText
 10
-14.0
 20
20.0
 30
0.0
 40
2.5
  1
<>
 50
0.0
100
AcDbText
  0
ENDBLK
  5
113
330
F
100
AcDbEntity
  8
0
100
AcDbBlockEnd
  0
BLOCK
  5
114
330
10
100
AcDbEntity
  8
0
100
AcDbBlockBegin
  2
*D5
 70
1
 10
0.0
 20
0.0
 30
0.0
  3
*D5
  1

  0
LINE
  5
115
330
10
100
AcDbEntity
  8
0
100
AcDbLine
 10
0.0
 20
60.0
 30
0.0
 11
-15.0
 21
60.0
 31
0.0
  0
TEXT
  5
116
330
10
100
AcDbEntity
  8
0
100
AcDbText
 10
-14.0
 20
60.0
 30
0.0
 40
2.5
  1
<>
 50
0.0
100
AcDbText
  0
ENDBLK
  5
117
330
10
100
AcDbEntity
  8
0
100
AcDbBlockEnd
  0
ENDSEC
  0
SECTION
  2
ENTITIES
  0
LWPOLYLINE
  5
118
330
A
100
AcDbEntity
  8
0
100
AcDbPolyline
 90
4
 70
1
 10
0.0
 20
0.0
 10
120.0
 20
0.0
 10
120.0
 20
60.0
 10
0.0
 20
60.0
  0
DIMENSION
  5
119
330
A
100
AcDbEntity
  8
DIMS
100
AcDbDimension
  2
*D1
 10
0.0
 20
0.0
 30
0.0
 11
0.0
 21
-15.0
 31
0.0
 70
102
  1
<>
  3
ORD
100
AcDbOrdinateDimension
 13
0.0
 23
0.0
 33
0.0
 14
0.0
 24
-15.0
 34
0.0
  0
DIMENSION
  5
11A
330
A
100
AcDbEntity
  8
DIMS
100
AcDbDimension
  2
*D2
 10
0.0
 20
0.0
 30
0.0
 11
30.0
 21
-15.0
 31
0.0
 70
102
  1

 42
30.0
  3
ORD
100
AcDbOrdinateDimension
 13
30.0
 23
20.0
 33
0.0
 14
30.0
 24
-15.0
 34
0.0
  0
DIMENSION
  5
11B
330
A
100
AcDbEntity
  8
DIMS
100
AcDbDimension
  2
*D3
 10
0.0
 20
0.0
 30
0.0
 11
120.0
 21
-15.0
 31
0.0
 70
102
  1
120.00
  3
ARCH
100
AcDbOrdinateDimension
 13
120.0
 23
0.0
 33
0.0
 14
120.0
 24
-15.0
 34
0.0
  0
DIMENSION
  5
11C
330
A
100
AcDbEntity
  8
DIMS
100
AcDbDimension
  2
*D4
 10
0.0
 20
0.0
 30
0.0
 11
-15.0
 21
20.0
 31
0.0
 70
38
  1
<>
  3
ORD
100
AcDbOrdinateDimension
 13
30.0
 23
20.0
 33
0.0
 14
-15.0
 24
20.0
 34
0.0
  0
DIMENSION
  5
11D
330
A
100
AcDbEntity
  8
DIMS
100
AcDbDimension
  2
*D5
 10
0.0
 20
0.0
 30
0.0
 11
-15.0
 21
60.0
 31
0.0
 70
38
  1
<>
  3
ORD
100
AcDbOrdinateDimension
 13
0.0
 23
60.0
 33
0.0
 14
-15.0
 24
60.0
 34
0.0
  0
ENDSEC
  0
EOF
