  0
SECTION
  2
HEADER
  9
$ACADVER
  1
AC1015
  9
$HANDSEED
  5
131
  0
ENDSEC
  0
SECTION
  2
TABLES
  0
TABLE
  2
LTYPE
  5
1
100
AcDbSymbolTable
 70
1
  0
LTYPE
  5
2
330
1
100
AcDbSymbolTableRecord
100
AcDbLinetypeTableRecord
  2
CONTINUOUS
 70
0
  3
Solid line
 72
65
 73
0
 40
0.0
  0
ENDTAB
  0
TABLE
  2
LAYER
  5
3
100
AcDbSymbolTable
 70
2
  0
LAYER
  5
4
330
3
100
AcDbSymbolTableRecord
100
AcDbLayerTableRecord
  2
0
 70
0
 62
7
  6
CONTINUOUS
  0
LAYER
  5
5
330
3
100
AcDbSymbolTableRecord
100
AcDbLayerTableRecord
  2
DIMS
 70
0
 62
3
  6
CONTINUOUS
  0
ENDTAB
  0
TABLE
  2
DIMSTYLE
  5
6
100
AcDbSymbolTable
 70
1
  0
DIMSTYLE
105
7
330
6
100
AcDbSymbolTableRecord
100
AcDbDimStyleTableRecord
  2
ISO-25
 70
0
  3
<>mm
 90
1
140
2.5
271
2
  0
ENDTAB
  0
TABLE
  2
BLOCK_RECORD
  5
8
100
AcDbSymbolTable
 70
9
  0
BLOCK_RECORD
  5
9
330
8
100
AcDbSymbolTableRecord
100
AcDbBlockTableRecord
  2
*Model_Space
  0
BLOCK_RECORD
  5
A
330
8
100
AcDbSymbolTableRecord
100
AcDbBlockTableRecord
  2
*Paper_Space
  0
BLOCK_RECORD
  5
B
330
8
100
AcDbSymbolTableRecord
100
AcDbBlockTableRecord
  2
*D1
  0
BLOCK_RECORD
  5
C
330
8
100
AcDbSymbolTableRecord
100
AcDbBlockTableRecord
  2
*D2
  0
BLOCK_RECORD
  5
D
330
8
100
AcDbSymbolTableRecord
100
AcDbBlockTableRecord
  2
*D3
  0
BLOCK_RECORD
  5
E
330
8
100
AcDbSymbolTableRecord
100
AcDbBlockTableRecord
  2
*D4
  0
BLOCK_RECORD
  5
F
330
8
100
AcDbSymbolTableRecord
100
AcDbBlockTableRecord
  2
*D5
  0
BLOCK_RECORD
  5
10
330
8
100
AcDbSymbolTableRecord
100
AcDbBlockTableRecord
  2
*D6
  0
BLOCK_RECORD
  5
11
330
8
100
AcDbSymbolTableRecord
100
AcDbBlockTableRecord
  2
*D7
  0
ENDTAB
  0
ENDSEC
  0
SECTION
  2
BLOCKS
  0
BLOCK
  5
100
330
9
100
AcDbEntity
  8
0
100
AcDbBlockBegin
  2
*Model_Space
 70
0
 10
0.0
 20
0.0
 30
0.0
  3
*Model_Space
  1

  0
ENDBLK
  5
101
330
9
100
AcDbEntity
  8
0
100
AcDbBlockEnd
  0
BLOCK
  5
102
330
A
100
AcDbEntity
  8
0
100
AcDbBlockBegin
  2
*Paper_Space
 70
0
 10
0.0
 20
0.0
 30
0.0
  3
*Paper_Space
  1

  0
ENDBLK
  5
103
330
A
100
AcDbEntity
  8
0
100
AcDbBlockEnd
  0
BLOCK
  5
104
330
B
100
AcDbEntity
  8
0
100
AcDbBlockBegin
  2
*D1
 70
1
 10
0.0
 20
0.0
 30
0.0
  3
*D1
  1

  0
LINE
  5
105
330
B
100
AcDbEntity
  8
0
100
AcDbLine
 10
0.0
 20
-15.0
 30
0.0
 11
120.0
 21
-15.0
 31
0.0
  0
LINE
  5
106
330
B
100
AcDbEntity
  8
0
100
AcDbLine
 10
0.0
 20
0.0
 30
0.0
 11
0.0
 21
-15.0
 31
0.0
  0
LINE
  5
107
330
B
100
AcDbEntity
  8
0
100
AcDbLine
 10
120.0
 20
0.0
 30
0.0
 11
120.0
 21
-15.0
 31
0.0
  0
TEXT
  5
108
330
B
100
AcDbEntity
  8
0
100
AcDbText
 10
60.0
 20
-14.0
 30
0.0
 40
2.5
  1
<>
 50
0.0
100
AcDbText
  0
ENDBLK
  5
109
330
B
100
AcDbEntity
  8
0
100
AcDbBlockEnd
  0
BLOCK
  5
10A
330
C
100
AcDbEntity
  8
0
100
AcDbBlockBegin
  2
*D2
 70
1
 10
0.0
 20
0.0
 30
0.0
  3
*D2
  1

  0
LINE
  5
10B
330
C
100
AcDbEntity
  8
0
100
AcDbLine
 10
0.0
 20
55.0
 30
0.0
 11
120.0
 21
55.0
 31
0.0
  0
LINE
  5
10C
330
C
100
AcDbEntity
  8
0
100
AcDbLine
 10
0.0
 20
40.0
 30
0.0
 11
0.0
 21
55.0
 31
0.0
  0
LINE
  5
10D
330
C
100
AcDbEntity
  8
0
100
AcDbLine
 10
120.0
 20
40.0
 30
0.0
 11
120.0
 21
55.0
 31
0.0
  0
TEXT
  5
10E
330
C
100
AcDbEntity
  8
0
100
AcDbText
 10
60.0
 20
56.0
 30
0.0
 40
2.5
  1

 50
0.0
100
AcDbText
  0
ENDBLK
  5
10F
330
C
100
AcDbEntity
  8
0
100
AcDbBlockEnd
  0
BLOCK
  5
110
330
D
100
AcDbEntity
  8
0
100
AcDbBlockBegin
  2
*D3
 70
1
 10
0.0
 20
0.0
 30
0.0
  3
*D3
  1

  0
LINE
  5
111
330
D
100
AcDbEntity
  8
0
100
AcDbLine
 10
0.0
 20
95.0
 30
0.0
 11
120.0
 21
95.0
 31
0.0
  0
LINE
  5
112
330
D
100
AcDbEntity
  8
0
100
AcDbLine
 10
0.0
 20
80.0
 30
0.0
 11
0.0
 21
95.0
 31
0.0
  0
LINE
  5
113
330
D
100
AcDbEntity
  8
0
100
AcDbLine
 10
120.0
 20
80.0
 30
0.0
 11
120.0
 21
95.0
 31
0.0
  0
TEXT
  5
114
330
D
100
AcDbEntity
  8
0
100
AcDbText
 10
60.0
 20
96.0
 30
0.0
 40
2.5
  1
 
 50
0.0
100
AcDbText
  0
ENDBLK
  5
115
330
D
100
AcDbEntity
  8
0
100
AcDbBlockEnd
  0
BLOCK
  5
116
330
E
100
AcDbEntity
  8
0
100
AcDbBlockBegin
  2
*D4
 70
1
 10
0.0
 20
0.0
 30
0.0
  3
*D4
  1

  0
LINE
  5
117
330
E
100
AcDbEntity
  8
0
100
AcDbLine
 10
0.0
 20
135.0
 30
0.0
 11
120.0
 21
135.0
 31
0.0
  0
LINE
  5
118
330
E
100
AcDbEntity
  8
0
100
AcDbLine
 10
0.0
 20
120.0
 30
0.0
 11
0.0
 21
135.0
 31
0.0
  0
LINE
  5
119
330
E
100
AcDbEntity
  8
0
100
AcDbLine
 10
120.0
 20
120.0
 30
0.0
 11
120.0
 21
135.0
 31
0.0
  0
TEXT
  5
11A
330
E
100
AcDbEntity
  8
0
100
AcDbText
 10
60.0
 20
136.0
 30
0.0
 40
2.5
  1
125
 50
0.0
100
AcDbText
  0
ENDBLK
  5
11B
330
E
100
AcDbEntity
  8
0
100
AcDbBlockEnd
  0
BLOCK
  5
11C
330
F
100
AcDbEntity
  8
0
100
AcDbBlockBegin
  2
*D5
 70
1
 10
0.0
 20
0.0
 30
0.0
  3
*D5
  1

  0
LINE
  5
11D
330
F
100
AcDbEntity
  8
0
100
AcDbLine
 10
0.0
 20
175.0
 30
0.0
 11
120.0
 21
175.0
 31
0.0
  0
LINE
  5
11E
330
F
100
AcDbEntity
  8
0
100
AcDbLine
 10
0.0
 20
160.0
 30
0.0
 11
0.0
 21
175.0
 31
0.0
  0
LINE
  5
11F
330
F
100
AcDbEntity
  8
0
100
AcDbLine
 10
120.0
 20
160.0
 30
0.0
 11
120.0
 21
175.0
 31
0.0
  0
TEXT
  5
120
330
F
100
AcDbEntity
  8
0
100
AcDbText
 10
60.0
 20
176.0
 30
0.0
 40
2.5
  1
<>
 50
0.0
100
AcDbText
  0
ENDBLK
  5
121
330
F
100
AcDbEntity
  8
0
100
AcDbBlockEnd
  0
BLOCK
  5
122
330
10
100
AcDbEntity
  8
0
100
AcDbBlockBegin
  2
*D6
 70
1
 10
0.0
 20
0.0
 30
0.0
  3
*D6
  1

  0
LINE
  5
123
330
10
100
AcDbEntity
  8
0
100
AcDbLine
 10
60.0
 20
200.0
 30
0.0
 11
80.0
 21
200.0
 31
0.0
  0
TEXT
  5
124
330
10
100
AcDbEntity
  8
0
100
AcDbText
 10
70.0
 20
201.0
 30
0.0
 40
2.5
  1
%%C20
 50
0.0
100
AcDbText
  0
ENDBLK
  5
125
330
10
100
AcDbEntity
  8
0
100
AcDbBlockEnd
  0
BLOCK
  5
126
330
11
100
AcDbEntity
  8
0
100
AcDbBlockBegin
  2
*D7
 70
1
 10
0.0
 20
0.0
 30
0.0
  3
*D7
  1

  0
LINE
  5
127
330
11
100
AcDbEntity
  8
0
100
AcDbLine
 10
0.0
 20
240.0
 30
0.0
 11
120.0
 21
240.0
 31
0.0
  0
TEXT
  5
128
330
11
100
AcDbEntity
  8
0
100
AcDbText
 10
60.0
 20
240.0
 30
0.0
 40
2.5
  1
<>
 50
0.0
100
AcDbText
  0
ENDBLK
  5
129
330
11
100
AcDbEntity
  8
0
100
AcDbBlockEnd
  0
ENDSEC
  0
SECTION
  2
ENTITIES
  0
DIMENSION
  5
12A
330
9
100
AcDbEntity
  8
DIMS
100
AcDbDimension
  2
*D1
 10
0.0
 20
-15.0
 30
0.0
 11
60.0
 21
0.0
 31
0.0
 70
32
  1
<>
 42
120.0
  3
ISO-25
100
AcDbAlignedDimension
 13
0.0
 23
0.0
 33
0.0
 14
120.0
 24
0.0
 34
0.0
100
AcDbRotatedDimension
  0
DIMENSION
  5
12B
330
9
100
AcDbEntity
  8
DIMS
100
AcDbDimension
  2
*D2
 10
0.0
 20
55.0
 30
0.0
 11
60.0
 21
40.0
 31
0.0
 70
32
  1

 42
120.0
  3
ISO-25
100
AcDbAlignedDimension
 13
0.0
 23
40.0
 33
0.0
 14
120.0
 24
40.0
 34
0.0
100
AcDbRotatedDimension
  0
DIMENSION
  5
12C
330
9
100
AcDbEntity
  8
DIMS
100
AcDbDimension
  2
*D3
 10
0.0
 20
95.0
 30
0.0
 11
60.0
 21
80.0
 31
0.0
 70
32
  1
 
 42
120.0
  3
ISO-25
100
AcDbAlignedDimension
 13
0.0
 23
80.0
 33
0.0
 14
120.0
 24
80.0
 34
0.0
100
AcDbRotatedDimension
  0
DIMENSION
  5
12D
330
9
100
AcDbEntity
  8
DIMS
100
AcDbDimension
  2
*D4
 10
0.0
 20
135.0
 30
0.0
 11
60.0
 21
120.0
 31
0.0
 70
32
  1
125
 42
120.0
  3
ISO-25
100
AcDbAlignedDimension
 13
0.0
 23
120.0
 33
0.0
 14
120.0
 24
120.0
 34
0.0
100
AcDbRotatedDimension
  0
DIMENSION
  5
12E
330
9
100
AcDbEntity
  8
DIMS
100
AcDbDimension
  2
*D5
 10
0.0
 20
175.0
 30
0.0
 11
60.0
 21
160.0
 31
0.0
 70
32
  1
<>
  3
NOT-DECLARED
100
AcDbAlignedDimension
 13
0.0
 23
160.0
 33
0.0
 14
120.0
 24
160.0
 34
0.0
100
AcDbRotatedDimension
  0
DIMENSION
  5
12F
330
9
100
AcDbEntity
  8
DIMS
100
AcDbDimension
  2
*D6
 10
60.0
 20
200.0
 30
0.0
 11
70.0
 21
200.0
 31
0.0
 70
35
  1
%%C20
 42
20.0
  3
ISO-25
100
AcDbDiametricDimension
 15
80.0
 25
200.0
 35
0.0
 40
0.0
  0
ARC_DIMENSION
  5
130
330
9
100
AcDbEntity
  8
DIMS
100
AcDbDimension
  2
*D7
 10
60.0
 20
260.0
 30
0.0
 11
60.0
 21
240.0
 31
0.0
 70
37
  1
<>
 42
133.5
  3
ISO-25
100
AcDbArcDimension
 13
0.0
 23
240.0
 33
0.0
 14
120.0
 24
240.0
 34
0.0
 15
60.0
 25
220.0
 35
0.0
  0
ENDSEC
  0
EOF
